<svg aria-hidden="true" style="position: absolute; width: 0; height: 0; overflow: hidden;" version="1.1" xmlns="http://www.w3.org/2000/svg" xmlns:xlink="http://www.w3.org/1999/xlink">
<defs>
<symbol id="Logo" viewBox="0 0 39 32">
<path d="M22.371 9.64l-0.749-0.571c-0.117-0.095-0.267-0.139-0.416-0.124s-0.288 0.088-0.384 0.204l-10.36 11.897 0.16 0.177 2.566-2.366c-0.085-0.034-0.156-0.098-0.2-0.179s-0.058-0.175-0.039-0.265c0.018-0.090 0.068-0.171 0.14-0.229s0.162-0.088 0.254-0.087c0.083 0 0.164 0.027 0.231 0.076s0.116 0.119 0.141 0.198l3.383-3.137c0.052-0.042 0.116-0.064 0.183-0.064s0.131 0.023 0.183 0.064l0.171 0.126c0.058 0.042 0.129 0.060 0.2 0.052s0.136-0.043 0.183-0.097l4.423-4.96c0.047-0.049 0.083-0.108 0.105-0.172s0.030-0.133 0.024-0.2c-0.006-0.068-0.027-0.133-0.062-0.192s-0.080-0.11-0.136-0.149z"></path>
<path d="M27.24 12.989c-2.267 1.613-4.807 2.804-7.497 3.514-2.67 0.679-5.402 1.085-8.154 1.211 0.055 0.406 0.155 0.804 0.297 1.189 1.554 1.406 13.257-0.994 15.543-3.771 0.486-0.577-0.189-2.143-0.189-2.143zM13.343 18.857c-0.077 0-0.152-0.023-0.216-0.066s-0.114-0.103-0.143-0.174-0.037-0.149-0.022-0.224c0.015-0.075 0.052-0.145 0.106-0.199s0.124-0.091 0.199-0.106c0.075-0.015 0.153-0.007 0.225 0.022s0.132 0.079 0.174 0.143 0.066 0.139 0.066 0.216c0.001 0.051-0.009 0.102-0.028 0.15s-0.048 0.091-0.084 0.127c-0.036 0.036-0.079 0.065-0.127 0.084s-0.098 0.029-0.15 0.028z"></path>
<path d="M2.286 12.166l0.091-0.394 1.486 0.337c0.123 0.226 0.198 0.475 0.223 0.731 0.028 0.271 0.011 0.546-0.051 0.811-0.074 0.369-0.243 0.712-0.491 0.994-0.236 0.267-0.54 0.464-0.88 0.571-0.35 0.108-0.723 0.122-1.080 0.040-0.358-0.077-0.688-0.251-0.954-0.503-0.262-0.242-0.45-0.553-0.543-0.897-0.103-0.374-0.103-0.769 0-1.143 0.061-0.28 0.172-0.547 0.326-0.789 0.146-0.22 0.342-0.402 0.571-0.531l0.206 0.314c-0.197 0.121-0.366 0.282-0.496 0.473s-0.218 0.408-0.258 0.635c-0.071 0.296-0.065 0.604 0.017 0.897 0.077 0.278 0.229 0.529 0.44 0.726 0.217 0.21 0.488 0.354 0.783 0.417 0.286 0.080 0.588 0.080 0.874 0 0.274-0.090 0.52-0.25 0.714-0.463 0.2-0.23 0.337-0.507 0.4-0.806 0.094-0.362 0.070-0.744-0.069-1.091l-1.309-0.331z"></path>
<path d="M5.52 8.571l-1.331 1.777 0.571 1.023-0.263 0.354-2.114-3.857 0.246-0.337 4.303 0.926-0.269 0.354-1.143-0.24zM5.143 8.48l-2.286-0.514 1.143 2.051 1.143-1.537z"></path>
<path d="M5.143 4.886l0.343-0.257 2.177 2.914 1.794-1.343 0.217 0.291-2.131 1.594-2.4-3.2z"></path>
<path d="M8.743 2.503l0.383-0.171 1.509 3.303 2.040-0.926 0.149 0.331-2.423 1.103-1.657-3.64z"></path>
<path d="M16.274 3.817l0.086 0.36-2.754 0.646-0.914-3.897 2.674-0.623 0.080 0.354-2.286 0.531 0.326 1.383 2.011-0.474 0.086 0.354-2.017 0.469 0.343 1.446 2.366-0.549z"></path>
<path d="M20.2 3.96l-0.954-1.257c-0.107 0.006-0.213 0.006-0.32 0l-1.074 0.034 0.040 1.269h-0.423l-0.131-4 1.52-0.006c0.43-0.040 0.86 0.076 1.211 0.326 0.148 0.119 0.268 0.271 0.349 0.443s0.122 0.361 0.12 0.551c0.017 0.282-0.057 0.563-0.211 0.8-0.164 0.228-0.396 0.398-0.663 0.486l1 1.337-0.463 0.017zM19.8 2.080c0.103-0.094 0.182-0.211 0.233-0.34s0.070-0.269 0.058-0.408c0.003-0.139-0.026-0.278-0.084-0.405s-0.145-0.238-0.253-0.327c-0.263-0.179-0.58-0.261-0.897-0.234l-1.086 0.040 0.069 2 1.063-0.034c0.324 0.012 0.642-0.091 0.897-0.291z"></path>
<path d="M23.223 2.897l-0.206 1.366-0.417-0.063 0.211-1.343-1.183-2.857 0.446 0.069 1.011 2.434 1.714-2.017 0.4 0.086-1.977 2.326z"></path>
<path d="M28.874 2.657l0.497 0.646-0.217 0.171-0.497-0.663-0.314 0.749-0.24-0.103 0.32-0.749-0.823 0.109v-0.274l0.811-0.091-0.503-0.646 0.223-0.171 0.44 0.651 0.309-0.754 0.246 0.103-0.291 0.766 0.823-0.114v0.28l-0.783 0.091z"></path>
<path d="M30.783 7.263c-0.135-0.208-0.219-0.445-0.246-0.691l0.337-0.149c0.025 0.226 0.099 0.445 0.217 0.64 0.128 0.219 0.294 0.412 0.491 0.571 0.204 0.195 0.464 0.321 0.743 0.36 0.101 0.009 0.203-0.006 0.296-0.045s0.176-0.1 0.241-0.178c0.047-0.052 0.084-0.114 0.106-0.181s0.031-0.138 0.025-0.208c-0.019-0.139-0.066-0.273-0.137-0.394-0.107-0.175-0.224-0.345-0.349-0.509-0.152-0.199-0.29-0.409-0.411-0.629-0.093-0.164-0.144-0.349-0.149-0.537-0-0.212 0.079-0.416 0.223-0.571 0.124-0.151 0.289-0.264 0.474-0.326 0.207-0.060 0.427-0.060 0.634 0 0.267 0.087 0.514 0.227 0.726 0.411 0.176 0.146 0.332 0.315 0.463 0.503 0.121 0.174 0.212 0.367 0.269 0.571l-0.326 0.171c-0.057-0.19-0.142-0.372-0.251-0.537-0.109-0.148-0.238-0.281-0.383-0.394-0.201-0.194-0.46-0.317-0.737-0.349-0.102-0.009-0.204 0.008-0.298 0.049s-0.176 0.104-0.239 0.185c-0.049 0.051-0.086 0.113-0.108 0.18s-0.031 0.138-0.023 0.209c0.013 0.144 0.060 0.283 0.137 0.406 0.080 0.131 0.194 0.303 0.349 0.509 0.153 0.195 0.291 0.401 0.411 0.617 0.095 0.164 0.148 0.348 0.154 0.537 0 0.212-0.079 0.416-0.223 0.571-0.125 0.153-0.292 0.266-0.48 0.326-0.207 0.062-0.428 0.062-0.634 0-0.269-0.087-0.517-0.227-0.731-0.411-0.231-0.201-0.424-0.441-0.571-0.709z"></path>
<path d="M36.531 8.097l-0.806-1.143 0.297-0.211 1.857 2.651-0.297 0.211-0.806-1.143-2.983 2.086-0.24-0.349 2.977-2.103z"></path>
<path d="M35.251 12.794c0.102-0.345 0.3-0.655 0.571-0.891 0.265-0.238 0.589-0.401 0.937-0.474 0.355-0.082 0.726-0.068 1.074 0.040 0.336 0.111 0.638 0.308 0.874 0.571 0.246 0.283 0.414 0.626 0.486 0.994 0.095 0.361 0.095 0.741 0 1.103-0.105 0.344-0.303 0.652-0.571 0.891-0.273 0.244-0.604 0.413-0.961 0.491s-0.729 0.062-1.079-0.046c-0.339-0.106-0.642-0.304-0.874-0.571-0.245-0.282-0.412-0.622-0.486-0.989-0.087-0.37-0.078-0.755 0.029-1.12zM36 14.611c0.191 0.217 0.438 0.377 0.714 0.463 0.285 0.083 0.586 0.092 0.875 0.028s0.558-0.199 0.782-0.394c0.211-0.194 0.367-0.441 0.451-0.714 0.080-0.289 0.087-0.593 0.023-0.886s-0.2-0.565-0.394-0.794c-0.199-0.218-0.454-0.378-0.737-0.463-0.288-0.077-0.592-0.077-0.88 0-0.291 0.056-0.56 0.192-0.777 0.394-0.213 0.195-0.369 0.444-0.451 0.72-0.078 0.29-0.078 0.596 0 0.886 0.063 0.284 0.199 0.546 0.394 0.76z"></path>
<path d="M34.817 19.428l1.48-0.571c0-0.103 0.034-0.206 0.063-0.314l0.28-1.034-1.211-0.314 0.109-0.406 3.863 1.034-0.389 1.446c-0.088 0.422-0.323 0.799-0.663 1.063-0.156 0.109-0.336 0.18-0.524 0.207s-0.381 0.012-0.562-0.047c-0.276-0.060-0.523-0.212-0.7-0.431s-0.275-0.492-0.277-0.775l-1.577 0.571 0.109-0.429zM36.731 19.588c0.067 0.121 0.158 0.228 0.267 0.314s0.235 0.148 0.368 0.184c0.134 0.036 0.274 0.044 0.411 0.024s0.269-0.067 0.388-0.139c0.252-0.203 0.424-0.488 0.486-0.806l0.274-1.029-1.937-0.52-0.274 1.029c-0.105 0.306-0.099 0.64 0.017 0.943z"></path>
<path d="M32.766 23.109l-0.291-0.223 1.714-2.257 3.189 2.417-1.657 2.189-0.291-0.223 1.4-1.846-1.143-0.863-1.251 1.651-0.286-0.217 1.28-1.651-1.183-0.897-1.48 1.92z"></path>
<path d="M31.429 27.663l-0.817 0.046v-0.274l0.817-0.006-0.44-0.68 0.223-0.143 0.434 0.686 0.354-0.766 0.246 0.131-0.389 0.72 0.817-0.046v0.28h-0.829l0.44 0.68-0.223 0.143-0.434-0.686-0.377 0.743-0.24-0.137 0.417-0.691z"></path>
<path d="M24 27.206l0.691 0.383c0.116-0.223 0.278-0.418 0.475-0.574s0.425-0.268 0.668-0.329c0.227-0.071 0.466-0.096 0.703-0.074 0.206 0.016 0.403 0.087 0.571 0.206 0.152 0.115 0.264 0.275 0.32 0.457 0.069 0.226 0.057 0.468-0.034 0.686-0.143 0.296-0.337 0.564-0.571 0.794 0.188 0.101 0.363 0.226 0.52 0.371 0.108 0.111 0.188 0.246 0.234 0.394 0.029 0.115 0.031 0.236 0.005 0.352s-0.078 0.224-0.154 0.317c-0.153 0.22-0.38 0.376-0.64 0.44-0.228 0.087-0.48 0.087-0.709 0-0.102-0.044-0.191-0.11-0.263-0.194s-0.122-0.184-0.149-0.291c-0.060-0.189-0.046-0.393 0.040-0.571 0.131-0.26 0.303-0.497 0.509-0.703l-1.377-0.766c-0.053 0.269-0.064 0.545-0.034 0.817h-0.349c-0.023-0.336 0.015-0.673 0.114-0.994l-0.72-0.4 0.149-0.32zM24.994 27.777l1.514 0.84c0.198-0.189 0.363-0.412 0.486-0.657 0.063-0.166 0.063-0.349 0-0.514-0.026-0.099-0.076-0.19-0.146-0.265s-0.157-0.131-0.254-0.164c-0.237-0.080-0.494-0.080-0.731 0-0.194 0.051-0.374 0.144-0.528 0.273s-0.278 0.289-0.363 0.47l0.023 0.017zM27.143 30.063c0.037-0.063 0.061-0.134 0.069-0.206s0-0.147-0.023-0.216c-0.035-0.113-0.098-0.215-0.183-0.297-0.145-0.123-0.305-0.228-0.474-0.314-0.173 0.171-0.325 0.363-0.451 0.571-0.069 0.13-0.085 0.281-0.046 0.423 0.018 0.065 0.050 0.126 0.093 0.178s0.097 0.095 0.158 0.124c0.145 0.055 0.306 0.055 0.451 0 0.155-0.041 0.291-0.137 0.383-0.269l0.023 0.006z"></path>
<path d="M17.034 31.611l0.080-4h0.406l-0.063 3.2 1.623-2.663h0.2l1.52 2.709 0.057-3.183h0.406l-0.074 4h-0.349l-1.68-2.989-1.777 2.931-0.349-0.006z"></path>
<path d="M15.046 27.429c0.261 0.249 0.448 0.566 0.54 0.915s0.085 0.717-0.020 1.062c-0.094 0.354-0.281 0.675-0.543 0.931-0.254 0.25-0.573 0.424-0.92 0.503-0.366 0.083-0.748 0.071-1.109-0.034-0.359-0.088-0.69-0.267-0.96-0.52-0.257-0.246-0.441-0.558-0.531-0.903-0.088-0.356-0.081-0.729 0.019-1.082s0.291-0.673 0.553-0.93c0.25-0.249 0.561-0.427 0.903-0.514 0.365-0.082 0.744-0.071 1.103 0.034 0.363 0.092 0.696 0.277 0.966 0.537zM13.097 27.229c-0.28 0.065-0.535 0.208-0.737 0.411-0.21 0.21-0.361 0.472-0.434 0.76-0.080 0.286-0.080 0.588 0 0.874 0.067 0.278 0.212 0.532 0.417 0.731 0.215 0.21 0.481 0.362 0.771 0.44 0.291 0.074 0.595 0.074 0.886 0 0.28-0.069 0.536-0.211 0.743-0.411 0.209-0.21 0.359-0.473 0.434-0.76 0.080-0.288 0.080-0.592 0-0.88-0.073-0.277-0.219-0.53-0.423-0.731-0.216-0.211-0.484-0.36-0.777-0.434-0.288-0.080-0.592-0.080-0.88 0z"></path>
<path d="M8.771 24.571l0.154 1.571c0.098 0.042 0.193 0.090 0.286 0.143l0.931 0.537 0.629-1.109 0.371 0.211-2 3.446-1.303-0.749c-0.385-0.193-0.689-0.517-0.857-0.914-0.062-0.179-0.083-0.369-0.061-0.557s0.086-0.369 0.187-0.529c0.133-0.25 0.343-0.451 0.6-0.571 0.261-0.108 0.549-0.13 0.823-0.063l-0.166-1.68 0.406 0.263zM8.12 26.377c-0.134 0.034-0.26 0.094-0.371 0.178s-0.203 0.188-0.271 0.308c-0.069 0.12-0.113 0.253-0.129 0.39s-0.005 0.277 0.034 0.41c0.134 0.296 0.366 0.536 0.657 0.68l0.92 0.531 1-1.714-0.92-0.531c-0.264-0.198-0.59-0.297-0.92-0.28v0.029z"></path>
<path d="M5.389 21.892l0.257-0.257 1.971 2.029-2.857 2.789-1.903-1.966 0.263-0.257 1.617 1.663 0.977-0.989-1.417-1.474 0.274-0.263 1.446 1.486 1.063-1.034-1.691-1.726z"></path>
<path d="M1.143 19.646l0.137-0.789 0.269 0.040-0.154 0.811 0.76-0.28 0.091 0.251-0.771 0.263 0.634 0.537-0.183 0.206-0.611-0.571-0.143 0.811-0.274-0.051 0.16-0.811-0.766 0.274-0.086-0.223 0.766-0.269-0.634-0.531 0.189-0.206 0.617 0.537z"></path>
</symbol>
<symbol id="twitter" viewBox="0 0 32 32">
<path d="M32 6.078c-1.19 0.522-2.458 0.868-3.78 1.036 1.36-0.812 2.398-2.088 2.886-3.626-1.268 0.756-2.668 1.29-4.16 1.588-1.204-1.282-2.92-2.076-4.792-2.076-3.632 0-6.556 2.948-6.556 6.562 0 0.52 0.044 1.020 0.152 1.496-5.454-0.266-10.28-2.88-13.522-6.862-0.566 0.982-0.898 2.106-0.898 3.316 0 2.272 1.17 4.286 2.914 5.452-1.054-0.020-2.088-0.326-2.964-0.808 0 0.020 0 0.046 0 0.072 0 3.188 2.274 5.836 5.256 6.446-0.534 0.146-1.116 0.216-1.72 0.216-0.42 0-0.844-0.024-1.242-0.112 0.85 2.598 3.262 4.508 6.13 4.57-2.232 1.746-5.066 2.798-8.134 2.798-0.538 0-1.054-0.024-1.57-0.090 2.906 1.874 6.35 2.944 10.064 2.944 12.072 0 18.672-10 18.672-18.668 0-0.29-0.010-0.57-0.024-0.848 1.302-0.924 2.396-2.078 3.288-3.406z"></path>
</symbol>
<symbol id="instagram" viewBox="0 0 32 32">
<path d="M31.969 9.408c-0.075-1.7-0.35-2.869-0.744-3.882-0.406-1.075-1.031-2.038-1.85-2.838-0.8-0.813-1.769-1.444-2.832-1.844-1.019-0.394-2.182-0.669-3.882-0.744-1.713-0.081-2.257-0.1-6.601-0.1s-4.888 0.019-6.595 0.094c-1.7 0.075-2.869 0.35-3.882 0.744-1.075 0.406-2.038 1.031-2.838 1.85-0.813 0.8-1.444 1.769-1.844 2.832-0.394 1.019-0.669 2.182-0.744 3.882-0.081 1.713-0.1 2.257-0.1 6.601s0.019 4.888 0.094 6.595c0.075 1.7 0.35 2.869 0.744 3.882 0.406 1.075 1.038 2.038 1.85 2.838 0.8 0.813 1.769 1.444 2.832 1.844 1.019 0.394 2.182 0.669 3.882 0.744 1.706 0.075 2.25 0.094 6.595 0.094s4.888-0.019 6.595-0.094c1.7-0.075 2.869-0.35 3.882-0.744 2.151-0.832 3.851-2.532 4.682-4.682 0.394-1.019 0.669-2.182 0.744-3.882 0.075-1.707 0.094-2.251 0.094-6.595s-0.006-4.888-0.081-6.595zM29.087 22.473c-0.069 1.563-0.331 2.407-0.55 2.969-0.538 1.394-1.644 2.5-3.038 3.038-0.563 0.219-1.413 0.481-2.969 0.55-1.688 0.075-2.194 0.094-6.464 0.094s-4.782-0.019-6.464-0.094c-1.563-0.069-2.407-0.331-2.969-0.55-0.694-0.256-1.325-0.663-1.838-1.194-0.531-0.519-0.938-1.144-1.194-1.838-0.219-0.563-0.481-1.413-0.55-2.969-0.075-1.688-0.094-2.194-0.094-6.464s0.019-4.782 0.094-6.464c0.069-1.563 0.331-2.407 0.55-2.969 0.256-0.694 0.663-1.325 1.2-1.838 0.519-0.531 1.144-0.938 1.838-1.194 0.563-0.219 1.413-0.481 2.969-0.55 1.688-0.075 2.194-0.094 6.464-0.094 4.276 0 4.782 0.019 6.464 0.094 1.563 0.069 2.407 0.331 2.969 0.55 0.694 0.256 1.325 0.662 1.838 1.194 0.531 0.519 0.938 1.144 1.194 1.838 0.219 0.563 0.481 1.413 0.55 2.969 0.075 1.688 0.094 2.194 0.094 6.464s-0.019 4.77-0.094 6.458z"></path>
<path d="M16.059 7.783c-4.538 0-8.22 3.682-8.22 8.22s3.682 8.22 8.22 8.22c4.539 0 8.22-3.682 8.22-8.22s-3.682-8.22-8.22-8.22zM16.059 21.335c-2.944 0-5.332-2.388-5.332-5.332s2.388-5.332 5.332-5.332c2.944 0 5.332 2.388 5.332 5.332s-2.388 5.332-5.332 5.332z"></path>
<path d="M26.524 7.458c0 1.060-0.859 1.919-1.919 1.919s-1.919-0.859-1.919-1.919c0-1.060 0.859-1.919 1.919-1.919s1.919 0.859 1.919 1.919z"></path>
</symbol>
<symbol id="linkedin" viewBox="0 0 32 32">
<path d="M31.992 32v-0.001h0.008v-11.736c0-5.741-1.236-10.164-7.948-10.164-3.227 0-5.392 1.771-6.276 3.449h-0.093v-2.913h-6.364v21.364h6.627v-10.579c0-2.785 0.528-5.479 3.977-5.479 3.399 0 3.449 3.179 3.449 5.657v10.401h6.62z"></path>
<path d="M0.528 10.636h6.635v21.364h-6.635v-21.364z"></path>
<path d="M3.843 0c-2.121 0-3.843 1.721-3.843 3.843s1.721 3.879 3.843 3.879c2.121 0 3.843-1.757 3.843-3.879-0.001-2.121-1.723-3.843-3.843-3.843v0z"></path>
</symbol>
<symbol id="facebook" viewBox="0 0 32 32">
<path d="M21.329 5.313h2.921v-5.088c-0.504-0.069-2.237-0.225-4.256-0.225-4.212 0-7.097 2.649-7.097 7.519v4.481h-4.648v5.688h4.648v14.312h5.699v-14.311h4.46l0.708-5.688h-5.169v-3.919c0.001-1.644 0.444-2.769 2.735-2.769z"></path>
</symbol>
  <symbol id="icon-Shape" viewBox="0 0 32 32">
  <path fill="none" stroke="#9da4bd" style="stroke: var(--color1, #9da4bd)" stroke-linejoin="round" stroke-linecap="round" stroke-miterlimit="4" stroke-width="1.7778" d="M30.221 23.116v4.291c0.003 0.805-0.333 1.575-0.927 2.119s-1.389 0.814-2.191 0.741c-4.401-0.478-8.628-1.982-12.342-4.391-3.456-2.196-6.385-5.125-8.581-8.581-2.417-3.731-3.921-7.979-4.391-12.4-0.072-0.8 0.195-1.593 0.736-2.186s1.307-0.931 2.11-0.932h4.291c1.436-0.014 2.659 1.038 2.86 2.46 0.181 1.373 0.517 2.721 1.001 4.019 0.393 1.045 0.142 2.224-0.644 3.018l-1.816 1.816c2.036 3.581 5.001 6.545 8.581 8.581l1.816-1.816c0.794-0.785 1.972-1.036 3.018-0.644 1.298 0.484 2.646 0.82 4.019 1.001 1.438 0.203 2.496 1.451 2.46 2.903z"></path>
</symbol>
  <symbol id="icon-map-pin" viewBox="0 0 32 32">
    <path fill="none" stroke="#9da4bd" style="stroke: var(--color1, #9da4bd)" stroke-linejoin="round" stroke-linecap="round" stroke-miterlimit="4" stroke-width="1.3333" d="M26.667 13.818c0 7.636-10.667 14.182-10.667 14.182s-10.667-6.545-10.667-14.182c0-5.422 4.776-9.818 10.667-9.818s10.667 4.396 10.667 9.818v0z"></path>
    <path fill="none" stroke="#9da4bd" style="stroke: var(--color1, #9da4bd)" stroke-linejoin="round" stroke-linecap="round" stroke-miterlimit="4" stroke-width="1.3333" d="M16 18.667c2.209 0 4-1.791 4-4s-1.791-4-4-4-4 1.791-4 4c0 2.209 1.791 4 4 4z"></path>
  </symbol>
  <symbol id="icon-mail" viewBox="0 0 32 32">
    <path fill="none" stroke="#9da4bd" style="stroke: var(--color1, #9da4bd)" stroke-linejoin="round" stroke-linecap="round" stroke-miterlimit="4" stroke-width="1.3333" d="M6.4 6.667h19.2c1.32 0 2.4 1.050 2.4 2.333v14c0 1.283-1.080 2.333-2.4 2.333h-19.2c-1.32 0-2.4-1.050-2.4-2.333v-14c0-1.283 1.080-2.333 2.4-2.333z"></path>
    <path fill="none" stroke="#9da4bd" style="stroke: var(--color1, #9da4bd)" stroke-linejoin="round" stroke-linecap="round" stroke-miterlimit="4" stroke-width="1.3333" d="M26.667 9.333l-10.667 8-10.667-8"></path>
  </symbol>
  <symbol id="icon-Copyright" viewBox="0 0 271 32">
    <path fill="#9da4bd" style="fill: var(--color1, #9da4bd)" d="M47.738 10.956c-1.574 0-2.811 0.558-3.712 1.673s-1.352 2.655-1.352 4.618c0 2.055 0.432 3.609 1.295 4.664 0.871 1.054 2.127 1.581 3.77 1.581 0.71 0 1.398-0.069 2.063-0.206 0.665-0.145 1.356-0.328 2.074-0.55v2.349c-1.314 0.496-2.803 0.745-4.469 0.745-2.452 0-4.335-0.741-5.649-2.223-1.314-1.489-1.971-3.617-1.971-6.382 0-1.742 0.317-3.266 0.951-4.572 0.642-1.306 1.566-2.307 2.773-3.002s2.624-1.043 4.251-1.043c1.711 0 3.292 0.359 4.744 1.077l-0.985 2.28c-0.565-0.267-1.165-0.5-1.799-0.699-0.626-0.206-1.287-0.309-1.982-0.309zM71.132 19.241c0 2.070-0.531 3.686-1.593 4.847s-2.54 1.742-4.434 1.742c-1.184 0-2.231-0.267-3.14-0.802s-1.608-1.302-2.097-2.303c-0.489-1.001-0.733-2.162-0.733-3.483 0-2.055 0.527-3.659 1.581-4.813s2.54-1.73 4.457-1.73c1.833 0 3.285 0.592 4.354 1.776 1.069 1.176 1.604 2.765 1.604 4.767zM61.908 19.241c0 2.926 1.081 4.389 3.243 4.389 2.139 0 3.208-1.463 3.208-4.389 0-2.895-1.077-4.343-3.231-4.343-1.13 0-1.952 0.374-2.464 1.123-0.504 0.749-0.756 1.822-0.756 3.22zM85.359 25.829c-1.604 0-2.849-0.577-3.735-1.73h-0.16c0.107 1.069 0.16 1.719 0.16 1.948v5.191h-2.693v-18.31h2.177c0.061 0.237 0.187 0.802 0.378 1.696h0.137c0.84-1.283 2.101-1.925 3.781-1.925 1.581 0 2.811 0.573 3.69 1.719 0.886 1.146 1.329 2.754 1.329 4.824s-0.451 3.686-1.352 4.847c-0.894 1.161-2.131 1.742-3.713 1.742zM84.706 14.898c-1.069 0-1.853 0.313-2.349 0.94-0.489 0.626-0.733 1.627-0.733 3.002v0.401c0 1.543 0.244 2.662 0.733 3.357 0.489 0.687 1.287 1.031 2.395 1.031 0.932 0 1.65-0.382 2.154-1.146s0.756-1.852 0.756-3.266c0-1.421-0.252-2.494-0.756-3.22-0.496-0.733-1.23-1.1-2.2-1.1zM96.32 12.927h2.933l2.578 7.184c0.39 1.024 0.649 1.986 0.779 2.888h0.092c0.069-0.42 0.195-0.928 0.378-1.524 0.183-0.603 1.153-3.453 2.91-8.548h2.91l-5.42 14.357c-0.985 2.635-2.628 3.953-4.927 3.953-0.596 0-1.177-0.065-1.742-0.195v-2.131c0.405 0.092 0.867 0.138 1.386 0.138 1.299 0 2.211-0.752 2.739-2.257l0.47-1.192-5.088-12.673zM121.947 12.698c0.542 0 0.989 0.038 1.341 0.115l-0.263 2.509c-0.382-0.092-0.779-0.137-1.192-0.137-1.077 0-1.952 0.351-2.624 1.054-0.665 0.703-0.997 1.616-0.997 2.739v6.623h-2.693v-12.673h2.108l0.355 2.234h0.137c0.42-0.756 0.966-1.356 1.639-1.799 0.68-0.443 1.409-0.665 2.189-0.665zM133.034 25.6h-2.693v-12.673h2.693v12.673zM130.181 9.57c0-0.481 0.13-0.852 0.39-1.111 0.267-0.26 0.645-0.39 1.134-0.39 0.474 0 0.84 0.13 1.1 0.39 0.268 0.26 0.401 0.63 0.401 1.111 0 0.458-0.134 0.821-0.401 1.089-0.26 0.26-0.626 0.39-1.1 0.39-0.489 0-0.867-0.13-1.134-0.39-0.26-0.267-0.39-0.63-0.39-1.089zM152.291 12.927v1.478l-2.166 0.401c0.199 0.267 0.363 0.596 0.493 0.985s0.195 0.802 0.195 1.237c0 1.306-0.451 2.334-1.352 3.082s-2.143 1.123-3.724 1.123c-0.405 0-0.772-0.031-1.1-0.092-0.58 0.359-0.871 0.779-0.871 1.261 0 0.29 0.134 0.508 0.401 0.653 0.275 0.145 0.775 0.218 1.501 0.218h2.212c1.398 0 2.46 0.298 3.185 0.894s1.089 1.455 1.089 2.578c0 1.436-0.592 2.544-1.776 3.323s-2.895 1.169-5.133 1.169c-1.726 0-3.044-0.306-3.953-0.917s-1.364-1.482-1.364-2.612c0-0.779 0.244-1.436 0.733-1.971 0.496-0.527 1.188-0.894 2.074-1.1-0.359-0.153-0.657-0.397-0.894-0.733-0.229-0.344-0.344-0.703-0.344-1.077 0-0.474 0.134-0.875 0.401-1.203s0.665-0.653 1.192-0.974c-0.657-0.283-1.192-0.741-1.604-1.375-0.405-0.642-0.607-1.39-0.607-2.246 0-1.375 0.432-2.441 1.295-3.197 0.871-0.756 2.108-1.134 3.713-1.134 0.359 0 0.733 0.027 1.123 0.080 0.397 0.046 0.695 0.095 0.894 0.149h4.388zM142.334 27.571c0 0.581 0.26 1.027 0.779 1.341 0.527 0.313 1.264 0.47 2.211 0.47 1.467 0 2.559-0.21 3.277-0.63s1.077-0.978 1.077-1.673c0-0.55-0.199-0.943-0.596-1.18-0.39-0.229-1.119-0.344-2.189-0.344h-2.039c-0.772 0-1.386 0.18-1.845 0.539-0.451 0.366-0.676 0.859-0.676 1.478zM143.491 17.029c0 0.794 0.202 1.406 0.607 1.833 0.413 0.428 1.001 0.642 1.764 0.642 1.558 0 2.338-0.833 2.338-2.498 0-0.825-0.195-1.459-0.584-1.902-0.382-0.451-0.966-0.676-1.753-0.676-0.779 0-1.371 0.222-1.776 0.665-0.397 0.443-0.596 1.089-0.596 1.936zM170.494 25.6h-2.704v-7.792c0-0.978-0.199-1.707-0.596-2.189-0.39-0.481-1.012-0.722-1.868-0.722-1.131 0-1.963 0.34-2.498 1.020-0.527 0.672-0.791 1.803-0.791 3.392v6.291h-2.693v-17.829h2.693v4.526c0 0.726-0.046 1.501-0.138 2.326h0.172c0.367-0.611 0.875-1.085 1.524-1.421 0.657-0.336 1.421-0.504 2.292-0.504 3.071 0 4.606 1.547 4.606 4.641v8.261zM183.655 23.652c0.657 0 1.314-0.103 1.971-0.309v2.028c-0.298 0.13-0.684 0.237-1.157 0.321-0.466 0.092-0.951 0.137-1.455 0.137-2.551 0-3.827-1.344-3.827-4.033v-6.829h-1.73v-1.192l1.856-0.985 0.917-2.681h1.661v2.819h3.609v2.040h-3.609v6.783c0 0.649 0.16 1.131 0.481 1.444 0.329 0.305 0.756 0.458 1.283 0.458zM214.114 25.6h-11.356v-2.040l4.32-4.343c1.276-1.306 2.12-2.231 2.532-2.773 0.42-0.55 0.726-1.066 0.917-1.547s0.286-0.997 0.286-1.547c0-0.756-0.229-1.352-0.687-1.787-0.451-0.435-1.077-0.653-1.879-0.653-0.642 0-1.264 0.118-1.868 0.355-0.596 0.237-1.287 0.665-2.074 1.283l-1.455-1.776c0.932-0.787 1.837-1.344 2.716-1.673s1.814-0.493 2.807-0.493c1.558 0 2.807 0.409 3.747 1.226 0.94 0.81 1.41 1.902 1.41 3.277 0 0.756-0.139 1.474-0.413 2.154-0.267 0.68-0.684 1.383-1.249 2.108-0.558 0.718-1.49 1.692-2.796 2.922l-2.91 2.819v0.115h7.953v2.372zM232.213 17.224c0 2.91-0.469 5.072-1.41 6.485-0.932 1.413-2.359 2.12-4.286 2.12-1.862 0-3.277-0.729-4.239-2.189s-1.444-3.598-1.444-6.417c0-2.956 0.467-5.133 1.399-6.531 0.939-1.406 2.368-2.108 4.284-2.108 1.873 0 3.29 0.733 4.252 2.2s1.444 3.613 1.444 6.44zM223.563 17.224c0 2.284 0.233 3.915 0.698 4.893 0.474 0.978 1.227 1.467 2.257 1.467 1.033 0 1.786-0.497 2.259-1.49 0.48-0.993 0.721-2.616 0.721-4.87 0-2.246-0.241-3.869-0.721-4.87-0.474-1.008-1.227-1.512-2.259-1.512-1.030 0-1.783 0.493-2.257 1.478-0.465 0.985-0.698 2.62-0.698 4.904zM250.313 25.6h-11.356v-2.040l4.32-4.343c1.276-1.306 2.121-2.231 2.532-2.773 0.42-0.55 0.725-1.066 0.917-1.547 0.19-0.481 0.286-0.997 0.286-1.547 0-0.756-0.228-1.352-0.687-1.787-0.45-0.435-1.077-0.653-1.879-0.653-0.642 0-1.265 0.118-1.867 0.355-0.597 0.237-1.289 0.665-2.076 1.283l-1.455-1.776c0.932-0.787 1.837-1.344 2.716-1.673s1.815-0.493 2.807-0.493c1.559 0 2.807 0.409 3.748 1.226 0.939 0.81 1.408 1.902 1.408 3.277 0 0.756-0.137 1.474-0.412 2.154-0.269 0.68-0.685 1.383-1.25 2.108-0.557 0.718-1.489 1.692-2.795 2.922l-2.91 2.819v0.115h7.951v2.372zM268.412 17.224c0 2.91-0.469 5.072-1.408 6.485-0.932 1.413-2.362 2.12-4.286 2.12-1.865 0-3.277-0.729-4.239-2.189-0.964-1.459-1.444-3.598-1.444-6.417 0-2.956 0.465-5.133 1.397-6.531 0.939-1.406 2.368-2.108 4.286-2.108 1.871 0 3.287 0.733 4.252 2.2 0.962 1.467 1.442 3.613 1.442 6.44zM259.761 17.224c0 2.284 0.233 3.915 0.7 4.893 0.474 0.978 1.225 1.467 2.257 1.467 1.030 0 1.783-0.497 2.257-1.49 0.482-0.993 0.721-2.616 0.721-4.87 0-2.246-0.239-3.869-0.721-4.87-0.474-1.008-1.227-1.512-2.257-1.512-1.033 0-1.783 0.493-2.257 1.478-0.467 0.985-0.7 2.62-0.7 4.904z"></path>
    <path fill="#9da4bd" style="fill: var(--color1, #9da4bd)" d="M12.646 13.406c1.638 0.077 2.061 1.472 2.086 2.125h2.291c-0.102-2.534-1.907-4.083-4.416-4.083-2.829 0-4.928 1.779-4.928 5.798 0 2.483 1.19 5.427 4.915 5.427 2.842 0 4.365-2.112 4.403-3.776h-2.291c-0.038 0.755-0.576 1.766-2.086 1.843-1.677-0.051-2.381-1.357-2.381-3.494 0-3.699 1.638-3.814 2.406-3.84zM12.8 4.267c-7.066 0-12.8 5.734-12.8 12.8s5.734 12.8 12.8 12.8c7.066 0 12.8-5.734 12.8-12.8s-5.734-12.8-12.8-12.8zM12.8 27.307c-5.645 0-10.24-4.595-10.24-10.24s4.595-10.24 10.24-10.24c5.645 0 10.24 4.595 10.24 10.24s-4.595 10.24-10.24 10.24z"></path>
  </symbol>
</defs>
</svg>
